 http://www.scenespeeds.com/

 Description

Channel: 6 channels
IMDB: http://www.imdb.com/title/tt1674784/
subs: none Video
ID: 0
Format: MPEG-4 Visual
Format profile: Advanced Simple@L5
Format settings, BVOP: 1
Format settings, QPel: No
Format settings, GMC: No warppoints
Format settings, Matrix: Default (H.263)
Codec ID: XVID
Codec ID/Hint: XviD
Duration: 1h 30mn
Bit rate: 1 492 Kbps
Width: 720 pixels
Height: 304 pixels
Display aspect ratio: 2.35:1
Frame rate: 19.181 fps
Color space: YUV
Chroma subsampling: 4:2:0
Bit depth: 8 bits
Scan type: Progressive
Compression mode: Lossy
Bits/(Pixel*Frame): 0.355
Stream size: 968 MiB (70%)
Writing library: XviD 1.2.1 (UTC 2008-12-04) Audio
ID: 1
Format: AC-3
Format/Info: Audio Coding 3
Mode extension: CM (complete main)
Codec ID: 2000
Duration: 1h 30mn
Bit rate mode: Constant
Bit rate: 640 Kbps
Channel(s): 6 channels
Channel positions: Front: L C R, Side: L R, LFE
Sampling rate: 48.0 KHz
Bit depth: 16 bits
Compression mode: Lossy
Stream size: 415 MiB (30%)
Alignment: Aligned on interleaves
Interleave, duration: 64 ms (1.23 video frame)
Interleave, preload duration: 192 ms
Title: F1_T3_Audio - English NOTE:
Straight up encode from the BD disk
  
http://www.scenespeeds.com/	